<svg width="42" height="42" viewBox="0 0 42 42" fill="none" xmlns="http://www.w3.org/2000/svg">
<path opacity="0.0196078" d="M18.8538 21.5564L20.6828 15.9305L22.5118 21.5564H28.4235L23.6386 25.0348L25.4676 30.6607L20.6828 27.1823L15.8979 30.6607L17.727 25.0348L12.9421 21.5564H18.8538ZM20.6828 32.3754L33.4614 41.6593L28.5786 26.6352L41.3572 17.3513H25.5656L20.6828 2.33536L15.8 17.3513H0.0083313L12.787 26.6352L7.90414 41.6593L20.6828 32.3754Z" fill="#E9EAE9"/>
<path opacity="0.0392157" d="M18.8704 21.5155L20.6994 15.8896L22.5285 21.5155H28.4401L23.6553 24.9857L25.4843 30.6116L20.6994 27.1332L15.9146 30.6116L17.7436 24.9857L12.9588 21.5073H18.8704V21.5155ZM20.6913 32.3263L33.4699 41.6102L28.5871 26.5942L41.3657 17.3103H25.5741L20.6913 2.29442L15.8166 17.3103H0.0249939L12.8036 26.5942L7.92081 41.6102L20.6913 32.3263Z" fill="#E3E3E2"/>
<path opacity="0.0588235" d="M18.8788 21.4665L20.7078 15.8407L22.5368 21.4665H28.4485L23.6636 24.945L25.4926 30.5708L20.7078 27.0924L15.9229 30.5708L17.752 24.945L12.9671 21.4665H18.8788ZM20.7078 32.2855L33.4864 41.5694L28.6036 26.5535L41.3822 17.2696H25.5824L20.7078 2.24551L15.8249 17.2614H0.0333252L12.812 26.5453L7.92914 41.5694L20.7078 32.2855Z" fill="#DDDCDC"/>
<path opacity="0.0784314" d="M18.8857 21.4256L20.7147 15.7998L22.5437 21.4256H28.4554L23.6705 24.904L25.4995 30.5299L20.7147 27.0515L15.9299 30.5299L17.7589 24.904L12.974 21.4256H18.8857ZM20.7147 32.2446L33.4933 41.5285L28.6105 26.5126L41.3892 17.2287H25.5975L20.7147 2.20459L15.84 17.2287H0.0402527L12.8189 26.5044L7.94423 41.5285L20.7147 32.2446Z" fill="#D7D6D6"/>
<path opacity="0.0980392" d="M18.9023 21.3849L20.7314 15.759L22.5604 21.3849H28.472L23.6872 24.8633L25.5162 30.4891L20.7314 27.0107L15.9465 30.4891L17.7755 24.8633L12.9825 21.3849H18.9023ZM20.7314 32.1957L33.5018 41.4796L28.619 26.4637L41.3977 17.1798H25.606L20.7314 2.16383L15.8485 17.1798H0.0569153L12.8356 26.4637L7.95273 41.4796L20.7314 32.1957Z" fill="#D2D0D0"/>
<path opacity="0.1176" d="M18.9106 21.3359L20.7397 15.7101L22.5687 21.3359H28.4803L23.6955 24.8144L25.5245 30.4402L20.7397 26.9618L15.9548 30.4402L17.7838 24.8144L12.999 21.3359H18.9106ZM20.7397 32.1549L33.5183 41.4388L28.6355 26.4229L41.4141 17.139H25.6225L20.7397 2.11491L15.8568 17.1308H0.0652161L12.8439 26.4147L7.96103 41.4388L20.7397 32.1549Z" fill="#CCCBCB"/>
<path opacity="0.1373" d="M18.9191 21.295L20.7482 15.6692L22.5772 21.295H28.497L23.7122 24.7734L25.5412 30.3993L20.7563 26.9209L15.9715 30.3993L17.8005 24.7734L13.0157 21.295H18.9191ZM20.7482 32.114L33.5268 41.3979L28.644 26.3738L41.4226 17.0899H25.631L20.7482 2.07399L15.8653 17.0899H0.0818787L12.8524 26.3738L7.97769 41.3979L20.7482 32.114Z" fill="#C7C5C5"/>
<path opacity="0.1569" d="M18.9356 21.2543L20.7647 15.6284L22.5937 21.2543H28.5053L23.7205 24.7327L25.5495 30.3585L20.7647 26.8801L15.9798 30.3585L17.8088 24.7327L13.024 21.2543H18.9356ZM20.7647 32.0651L33.5433 41.349L28.6605 26.3331L41.4391 17.0492H25.6393L20.7647 2.03323L15.8818 17.0492H0.09021L12.8689 26.3331L7.98602 41.349L20.7647 32.0651Z" fill="#C2C0C0"/>
<path opacity="0.1765" d="M18.944 21.2052L20.773 15.5793L22.602 21.2052H28.5137L23.7288 24.6836L25.5578 30.3095L20.773 26.831L15.9881 30.3095L17.8172 24.6836L13.0323 21.2052H18.944ZM20.773 32.0242L33.5516 41.3081L28.6688 26.2921L41.4474 17.0082H25.6558L20.773 1.98415L15.8902 17.0001H0.0985413L12.8772 26.2921L7.99435 41.3081L20.773 32.0242Z" fill="#BDBABA"/>
<path opacity="0.1961" d="M18.9592 21.1644L20.7883 15.5386L22.6173 21.1644H28.5289L23.7441 24.6428L25.5731 30.2687L20.7883 26.7903L16.0034 30.2687L17.8324 24.6428L13.0476 21.1644H18.9592ZM20.7801 31.9834L33.5587 41.2673L28.6759 26.2514L41.4545 16.9675H25.6629L20.7801 1.94339L15.8973 16.9593H0.1138L12.8924 26.2432L8.00961 41.2673L20.7801 31.9834Z" fill="#B8B5B5"/>
<path opacity="0.2157" d="M18.9675 21.1237L20.7966 15.4978L22.6256 21.1237H28.5372L23.7524 24.6021L25.5814 30.2279L20.7966 26.7495L16.0117 30.2279L17.8407 24.6021L13.0559 21.1237H18.9675ZM20.7966 31.9345L33.5752 41.2184L28.6924 26.2025L41.471 16.9186H25.6712L20.7966 1.90263L15.9137 16.9186H0.122101L12.9007 26.2025L8.01791 41.2184L20.7966 31.9345Z" fill="#B3B0B0"/>
<path opacity="0.2353" d="M18.9759 21.0746L20.8049 15.4487L22.6339 21.0746H28.5456L23.7607 24.553L25.5897 30.1789L20.8049 26.7004L16.02 30.1789L17.8491 24.553L13.0642 21.0746H18.9759ZM20.8049 31.8936L33.5835 41.1775L28.7007 26.1615L41.4793 16.8776H25.6877L20.8049 1.85355L15.9221 16.8776H0.130432L12.9091 26.1615L8.03441 41.1775L20.8049 31.8936Z" fill="#AEABAB"/>
<path opacity="0.2549" d="M18.9925 21.0338L20.8215 15.408L22.6506 21.0338H28.5622L23.7774 24.5122L25.6064 30.1381L20.8215 26.6597L16.0367 30.1381L17.8657 24.5122L13.0809 21.0338H18.9925ZM20.8215 31.8528L33.6002 41.1367L28.7174 26.1208L41.496 16.8369H25.6962L20.8215 1.81279L15.9387 16.8287H0.147095L12.9257 26.1126L8.04291 41.1367L20.8215 31.8528Z" fill="#AAA6A6"/>
<path opacity="0.2745" d="M19.0009 20.9929L20.8299 15.367L22.6589 20.9929H28.5706L23.7857 24.4713L25.6147 30.0972L20.8299 26.6188L16.045 30.0972L17.8741 24.4713L13.0892 20.9929H19.0009ZM20.8299 31.8119L33.6085 41.0958L28.7257 26.0799L41.5043 16.796H25.7127L20.8299 1.77187L15.9471 16.7878H0.155426L12.9341 26.0717L8.05124 41.0876L20.8299 31.8119Z" fill="#A5A1A1"/>
<path opacity="0.2941" d="M19.0093 20.944L20.8383 15.3181L22.6674 20.944H28.579L23.7942 24.4224L25.6232 30.0483L20.8383 26.5699L16.0535 30.0483L17.8825 24.4224L13.0977 20.944H19.0093ZM20.8383 31.763L33.617 41.0469L28.7342 26.031L41.5128 16.747H25.7212L20.8383 1.72296L15.9555 16.7389H0.172058L12.9507 26.0228L8.06787 41.0469L20.8383 31.763Z" fill="#A09C9C"/>
<path opacity="0.3137" d="M19.0245 20.9031L20.8535 15.2772L22.6825 20.9031H28.5941L23.8093 24.3815L25.6383 30.0073L20.8535 26.5289L16.0686 30.0073L17.8976 24.3815L13.1046 20.9031H19.0245ZM20.8535 31.722L33.6321 41.0059L28.7493 25.99L41.5279 16.7061H25.7281L20.8535 1.68202L15.9706 16.6979H0.179016L12.9577 25.9819L8.07483 41.0059L20.8535 31.722Z" fill="#9C9898"/>
<path opacity="0.3333" d="M19.0327 20.8623L20.8618 15.2364L22.6908 20.8623H28.6024L23.8176 24.3325L25.6466 29.9584L20.8618 26.48L16.0769 29.9666L17.9059 24.3407L13.1211 20.8623H19.0327ZM20.8618 31.6813L33.6404 40.957L28.7576 25.9411L41.5362 16.6572H25.7446L20.8618 1.64127L15.9789 16.6572H0.187317L12.966 25.9411L8.08313 40.957L20.8618 31.6813Z" fill="#979393"/>
<path opacity="0.3529" d="M19.0412 20.8134L20.8703 15.1875L22.6993 20.8134H28.6109L23.8261 24.2918L25.6551 29.9177L20.8703 26.4393L16.0854 29.9177L17.9144 24.2918L13.1296 20.8134H19.0412ZM20.8703 31.6324L33.6489 40.9163L28.7661 25.9004L41.5447 16.6164H25.7531L20.8703 1.59236L15.9874 16.6083H0.203979L12.9826 25.8922L8.09979 40.9163L20.8703 31.6324Z" fill="#938E8F"/>
<path opacity="0.3725" d="M19.0577 20.7725L20.8868 15.1466L22.7158 20.7725H28.6274L23.8426 24.2509L25.6716 29.8767L20.8868 26.3983L16.1019 29.8767L17.9309 24.2509L13.1461 20.7725H19.0577ZM20.8868 31.5914L33.6654 40.8753L28.7826 25.8594L41.553 16.5755H25.7614L20.8868 1.55142L16.0039 16.5755H0.212311L12.991 25.8594L8.10812 40.8753L20.8868 31.5914Z" fill="#8F8A8A"/>
<path opacity="0.3922" d="M19.066 20.7317L20.8951 15.1058L22.7241 20.7317H28.6357L23.8509 24.2101L25.6799 29.836L20.8951 26.3576L16.1102 29.836L17.9392 24.2101L13.1544 20.7317H19.066ZM20.8951 31.5507L33.6737 40.8264L28.7909 25.8105L41.5695 16.5266H25.7779L20.8951 1.51067L16.0122 16.5266H0.220612L12.9993 25.8105L8.12459 40.8264L20.8951 31.5507Z" fill="#8A8586"/>
<path opacity="0.4118" d="M19.0827 20.6826L20.9117 15.0568L22.7407 20.6826H28.6524L23.8676 24.161L25.6966 29.7869L20.9117 26.3085L16.1269 29.7869L17.9559 24.161L13.1711 20.6826H19.0827ZM20.9117 31.5016L33.6904 40.7855L28.8075 25.7696L41.5862 16.4857H25.7864L20.9117 1.46159L16.0289 16.4775H0.237274L13.0159 25.7614L8.13309 40.7855L20.9117 31.5016Z" fill="#868181"/>
<path opacity="0.4314" d="M19.091 20.6419L20.9201 15.016L22.7491 20.6419H28.6607L23.8759 24.1203L25.7049 29.7461L20.9201 26.2677L16.1352 29.7461L17.9642 24.1203L13.1794 20.6419H19.091ZM20.9201 31.4608L33.6987 40.7447L28.8159 25.7207L41.5945 16.4367H25.8029L20.9201 1.42082L16.0372 16.4367H0.245605L13.0242 25.7207L8.14142 40.7447L20.9201 31.4608Z" fill="#827D7D"/>
<path opacity="0.451" d="M19.0981 20.6009L20.9271 14.9751L22.7562 20.6009H28.6678L23.883 24.0793L25.712 29.7052L20.9271 26.2268L16.1423 29.7052L17.9713 24.0793L13.1865 20.6009H19.0981ZM20.9271 31.4199L33.7058 40.7038L28.823 25.6797L41.6016 16.3958H25.81L20.9271 1.3799L16.0443 16.3958H0.260864L13.0395 25.6797L8.15668 40.6956L20.9271 31.4199Z" fill="#7E7979"/>
<path opacity="0.4706" d="M19.1146 20.552L20.9436 14.9261L22.7727 20.552H28.6843L23.8995 24.0304L25.7285 29.6563L20.9436 26.1779L16.1588 29.6563L17.9878 24.0304L13.203 20.552H19.1146ZM20.9436 31.371L33.7223 40.6549L28.8395 25.639L41.6181 16.3551H25.8183L20.9436 1.33914L16.0608 16.3551H0.269196L13.0478 25.639L8.16501 40.6549L20.9436 31.371Z" fill="#7A7475"/>
<path opacity="0.4902" d="M19.123 20.5113L20.952 14.8854L22.781 20.5113H28.6927L23.9078 23.9897L25.7368 29.6155L20.952 26.1371L16.1671 29.6155L17.9962 23.9897L13.2113 20.5113H19.123ZM20.952 31.3302L33.7306 40.6142L28.8478 25.5982L41.6264 16.3143H25.8348L20.952 1.29024L16.0692 16.3062H0.277527L13.0562 25.5901L8.17334 40.606L20.952 31.3302Z" fill="#767071"/>
<path opacity="0.5098" d="M19.1314 20.4703L20.9604 14.8445L22.7895 20.4703H28.7011L23.9244 23.9487L25.7535 29.5746L20.9686 26.0962L16.1838 29.5746L18.0128 23.9487L13.2279 20.4703H19.1314ZM20.9604 31.2893L33.7391 40.5732L28.8563 25.5573L41.6349 16.2734H25.8433L20.9604 1.2493L16.0858 16.2652H0.294159L13.0646 25.5491L8.1818 40.565L20.9604 31.2893Z" fill="#726D6D"/>
<path opacity="0.5294" d="M19.1479 20.4214L20.9769 14.7955L22.806 20.4214H28.7176L23.9328 23.8998L25.7618 29.5257L20.9769 26.0473L16.1921 29.5257L18.0211 23.8998L13.2281 20.4214H19.1479ZM20.9769 31.2404L33.7556 40.5243L28.8728 25.5084L41.6432 16.2245H25.8516L20.9769 1.20854L16.0941 16.2245H0.30249L13.0811 25.5084L8.1983 40.5243L20.9769 31.2404Z" fill="#6E6969"/>
<path opacity="0.549" d="M19.1563 20.3805L20.9853 14.7546L22.8143 20.3805H28.7259L23.9411 23.8589L25.7701 29.4848L20.9853 26.0064L16.2004 29.4848L18.0294 23.8589L13.2446 20.3805H19.1563ZM20.9853 31.1995L33.7639 40.4834L28.8811 25.4675L41.6597 16.1836H25.8681L20.9853 1.15947L16.1024 16.1754H0.310822L13.0895 25.4593L8.20663 40.4752L20.9853 31.1995Z" fill="#6B6565"/>
<path opacity="0.5686" d="M19.1715 20.3397L21.0005 14.7139L22.8296 20.3397H28.7412L23.9564 23.8181L25.7854 29.444L21.0005 25.9656L16.2157 29.444L18.0447 23.8181L13.2599 20.3397H19.1715ZM21.0005 31.1587L33.7792 40.4426L28.8963 25.4267L41.675 16.1428H25.8752L21.0005 1.1187L16.1177 16.1346H0.32608L13.1047 25.4185L8.22189 40.4345L21.0005 31.1587Z" fill="#676161"/>
<path opacity="0.5882" d="M19.1798 20.2988L21.0089 14.6729L22.8379 20.2988H28.7495L23.9647 23.7772L25.7937 29.4031L21.0089 25.9247L16.224 29.3949L18.053 23.769L13.2682 20.2906H19.1798V20.2988ZM21.0089 31.1096L33.7875 40.3935L28.9047 25.3776L41.6833 16.0937H25.8917L21.0089 1.07777L16.126 16.0937H0.334412L13.1131 25.3776L8.23022 40.3935L21.0089 31.1096Z" fill="#635E5E"/>
<path opacity="0.6078" d="M19.1883 20.2499L21.0173 14.624L22.8463 20.2499H28.758L23.9732 23.7283L25.8022 29.3542L21.0173 25.8758L16.2325 29.3542L18.0615 23.7283L13.2767 20.2499H19.1883ZM21.0173 31.0689L33.796 40.3528L28.9131 25.3369L41.6918 16.053H25.9002L21.0173 1.02887L16.1345 16.0448H0.351044L13.1297 25.3287L8.24686 40.3528L21.0173 31.0689Z" fill="#605A5A"/>
<path opacity="0.6275" d="M19.2048 20.2091L21.0338 14.5833L22.8628 20.2091H28.7745L23.9897 23.6876L25.8187 29.3134L21.0338 25.835L16.2408 29.3134L18.0698 23.6876L13.285 20.2091H19.2048ZM21.0338 31.0281L33.8043 40.3039L28.9215 25.2879L41.7001 16.004H25.9085L21.0338 0.988113L16.151 16.004H0.359375L13.138 25.2879L8.25519 40.3039L21.0338 31.0281Z" fill="#5D5757"/>
<path opacity="0.6471" d="M19.2131 20.1682L21.0422 14.5423L22.8712 20.1682H28.7828L23.998 23.6466L25.827 29.2725L21.0422 25.7941L16.2573 29.2725L18.0863 23.6466L13.3015 20.1682H19.2131ZM21.0422 30.979L33.8208 40.2629L28.938 25.247L41.7166 15.9631H25.925L21.0422 0.947174L16.1593 15.9631H0.367706L13.1463 25.247L8.26352 40.2629L21.0422 30.979Z" fill="#595454"/>
<path opacity="0.6667" d="M19.2216 20.1193L21.0506 14.4934L22.8796 20.1193H28.7913L24.0146 23.5977L25.8436 29.2236L21.0588 25.7452L16.2739 29.2236L18.103 23.5977L13.31 20.1193H19.2216ZM21.0506 30.9383L33.8293 40.2222L28.9464 25.2063L41.7251 15.9224H25.9335L21.0506 0.89827L16.176 15.9224H0.384338L13.163 25.2063L8.28015 40.2222L21.0506 30.9383Z" fill="#565050"/>
<path opacity="0.6863" d="M19.2381 20.0784L21.0671 14.4525L22.8961 20.0784H28.8078L24.023 23.5568L25.852 29.1826L21.0671 25.7042L16.2823 29.1826L18.1113 23.5568L13.3265 20.0784H19.2381ZM21.0671 30.8973L33.8376 40.1731L28.9548 25.1572L41.7334 15.8733H25.9418L21.0671 0.85733L16.1843 15.8733H0.39267L13.1713 25.1572L8.28848 40.1731L21.0671 30.8973Z" fill="#534D4D"/>
<path opacity="0.7059" d="M19.245 20.0376L21.0741 14.4117L22.9031 20.0376H28.8147L24.0299 23.516L25.8589 29.1419L21.0741 25.6635L16.2892 29.1419L18.1182 23.516L13.3334 20.0376H19.245ZM21.0741 30.8484L33.8527 40.1323L28.9699 25.1164L41.7485 15.8325H25.9569L21.0741 0.816574L16.1912 15.8325H0.399597L13.1782 25.1164L8.29541 40.1323L21.0741 30.8484Z" fill="#4F4A4A"/>
<path opacity="0.7255" d="M19.2617 19.9885L21.0907 14.3627L22.9197 19.9885H28.8314L24.0465 23.4669L25.8756 29.0928L21.0907 25.6144L16.3059 29.0928L18.1349 23.4669L13.35 19.9885H19.2617ZM21.0907 30.8075L33.8612 40.0914L28.9865 25.0673L41.7652 15.7834H25.9654L21.0907 0.767502L16.2079 15.7834H0.41626L13.1949 25.0673L8.31207 40.0914L21.0907 30.8075Z" fill="#4C4747"/>
<path opacity="0.7451" d="M19.27 19.9478L21.099 14.3219L22.9281 19.9478H28.8397L24.0549 23.4262L25.8839 29.052L21.099 25.5736L16.3142 29.052L18.1432 23.4262L13.3584 19.9478H19.27ZM21.099 30.7668L33.8777 40.0507L28.9949 25.0347L41.7735 15.7508H25.9819L21.099 0.726746L16.2162 15.7427H0.424591L13.2032 25.0266L8.3204 40.0425L21.099 30.7668Z" fill="#494444"/>
<path opacity="0.7647" d="M19.2785 19.907L21.1075 14.2812L22.9365 19.907H28.8482L24.0633 23.3854L25.8924 29.0113L21.1075 25.5329L16.3227 29.0113L18.1517 23.3854L13.3668 19.907H19.2785ZM21.1075 30.7178L33.8862 40.0017L29.0033 24.9858L41.782 15.7019H25.9903L21.1075 0.685989L16.2247 15.7019H0.441223L13.2117 24.9858L8.32887 40.0017L21.1075 30.7178Z" fill="#464141"/>
<path opacity="0.7843" d="M19.295 19.8579L21.124 14.2321L22.953 19.8579H28.8647L24.0798 23.3363L25.9089 28.9622L21.124 25.4838L16.331 28.9622L18.16 23.3363L13.3752 19.8579H19.295ZM21.124 30.6769L33.9026 39.9608L29.0198 24.9449L41.7985 15.661H25.9987L21.124 0.636902L16.2412 15.6528H0.449554L13.2282 24.9449L8.34537 39.9608L21.124 30.6769Z" fill="#433E3E"/>
<path opacity="0.8039" d="M19.3033 19.8172L21.1323 14.1913L22.9614 19.8172H28.873L24.0882 23.2956L25.9172 28.9215L21.1323 25.443L16.3475 28.9215L18.1765 23.2956L13.3917 19.8172H19.3033ZM21.1323 30.6362L33.911 39.9201L29.0282 24.9041L41.8068 15.6121H26.0152L21.1323 0.596146L16.2495 15.6121H0.457886L13.2365 24.896L8.3537 39.9119L21.1323 30.6362Z" fill="#403B3B"/>
<path opacity="0.8235" d="M19.3104 19.7762L21.1394 14.1504L22.9684 19.7762H28.8801L24.0953 23.2546L25.9243 28.8805L21.1394 25.3939L16.3546 28.8723L18.1836 23.2465L13.3988 19.7681H19.3104V19.7762ZM21.1394 30.5871L33.9181 39.871L29.0352 24.855L41.8139 15.5711H26.0223L21.1394 0.555206L16.2566 15.5711H0.473145L13.2518 24.855L8.36896 39.871L21.1394 30.5871Z" fill="#3D3839"/>
<path opacity="0.8431" d="M19.3269 19.7273L21.1559 14.1015L22.9849 19.7273H28.8966L24.1118 23.2057L25.9408 28.8316L21.1559 25.3532L16.3711 28.8316L18.2001 23.2057L13.4153 19.7273H19.3269ZM21.1559 30.5463L33.9346 39.8302L29.0517 24.8143L41.8304 15.5304H26.0306L21.1559 0.506302L16.2731 15.5222H0.481476L13.2601 24.8061L8.37729 39.8221L21.1559 30.5463Z" fill="#3A3636"/>
<path opacity="0.8627" d="M19.3352 19.6866L21.1643 14.0607L22.9933 19.6866H28.9049L24.1201 23.165L25.9491 28.7909L21.1643 25.3124L16.3794 28.7909L18.2084 23.165L13.4236 19.6866H19.3352ZM21.1643 30.5056L33.9429 39.7895L29.0601 24.7735L41.8387 15.4896H26.0471L21.1643 0.465546L16.2814 15.4815H0.489807L13.2684 24.7654L8.38562 39.7813L21.1643 30.5056Z" fill="#373333"/>
<path opacity="0.8824" d="M19.3519 19.6457L21.1809 14.0198L23.0099 19.6457H28.9216L24.1367 23.1241L25.9657 28.7418L21.1809 25.2634L16.3879 28.7418L18.2169 23.1159L13.4321 19.6375H19.3519V19.6457ZM21.1727 30.4565L33.9514 39.7404L29.0685 24.7244L41.8472 15.4405H26.0556L21.1727 0.424622L16.2899 15.4405H0.506439L13.2851 24.7244L8.40225 39.7404L21.1727 30.4565Z" fill="#353030"/>
<path opacity="0.902" d="M19.3602 19.5967L21.1892 13.9709L23.0182 19.5967H28.9299L24.145 23.0751L25.9741 28.701L21.1892 25.2226L16.4044 28.701L18.2334 23.0751L13.4485 19.5967H19.3602ZM21.1892 30.4157L33.9679 39.6996L29.085 24.6837L41.8637 15.3998H26.0639L21.1892 0.375702L16.3064 15.3916H0.514771L13.2934 24.6755L8.41058 39.6996L21.1892 30.4157Z" fill="#322D2E"/>
<path opacity="0.9216" d="M19.3687 19.5558L21.1977 13.9299L23.0267 19.5558H28.9384L24.1535 23.0342L25.9826 28.6601L21.1977 25.1817L16.4129 28.6601L18.2419 23.0342L13.457 19.5558H19.3687ZM21.1977 30.3748L33.9764 39.6587L29.0935 24.6428L41.8722 15.3589H26.0805L21.1977 0.334778L16.3149 15.3507H0.531433L13.3101 24.6346L8.42724 39.6505L21.1977 30.3748Z" fill="#2F2A2B"/>
<path opacity="0.9412" d="M19.3838 19.5151L21.2128 13.8892L23.0418 19.5151H28.9535L24.1686 22.9853L25.9977 28.6112L21.2128 25.1328L16.428 28.6112L18.257 22.9853L13.464 19.5151H19.3838ZM21.2128 30.3259L33.9915 39.6098L29.1086 24.5939L41.8873 15.3099H26.0875L21.2128 0.294022L16.33 15.3099H0.538361L13.317 24.5939L8.43417 39.6098L21.2128 30.3259Z" fill="#2C2828"/>
<path opacity="0.9608" d="M19.3921 19.466L21.2211 13.8401L23.0502 19.466H28.9618L24.177 22.9444L26.006 28.5702L21.2211 25.0918L16.4363 28.5702L18.2653 22.9444L13.4805 19.466H19.3921ZM21.2211 30.2849L33.9998 39.5689L29.117 24.5529L41.8956 15.269H26.104L21.2211 0.244934L16.3383 15.269H0.546692L13.3253 24.5529L8.4425 39.5689L21.2211 30.2849Z" fill="#292526"/>
<path opacity="0.9804" d="M19.4006 19.4252L21.2296 13.7993L23.0586 19.4252H28.9703L24.1854 22.9036L26.0145 28.5295L21.2296 25.0511L16.4448 28.5295L18.2738 22.9036L13.4889 19.4252H19.4006ZM21.2296 30.2442L34.0083 39.5281L29.1254 24.5122L41.9041 15.2283H26.1124L21.2296 0.204178L16.3468 15.2201H0.563324L13.342 24.504L8.45914 39.5199L21.2296 30.2442Z" fill="#262223"/>
<path d="M19.4171 19.3845L21.2461 13.7586L23.0751 19.3845H28.9868L24.2019 22.8629L26.031 28.4887L21.2461 25.0103L16.4613 28.4887L18.2903 22.8629L13.5054 19.3845H19.4171ZM21.2461 30.1953L34.0247 39.4792L29.1419 24.4633L41.9206 15.1793H26.1208L21.2461 0.163422L16.3633 15.1793H0.571655L13.3503 24.4633L8.46747 39.4792L21.2461 30.1953Z" fill="#231F20"/>
<path d="M21.2461 30.04L34.0247 39.3239L29.1419 24.308L41.9206 15.2119V15.1466L26.1616 15.1547L21.2461 0L16.3633 15.1221L0.571655 15.1139V15.1792L13.3503 24.2998L8.46747 39.3158L21.2461 30.04ZM19.4171 19.221L21.2461 13.5952L23.0751 19.221H28.9868L24.2019 22.6994L26.031 28.3253L21.2461 24.8469L16.4613 28.3253L18.2903 22.6994L13.5054 19.221H19.4171Z" fill="#BDBEC0"/>
<path d="M21.2461 30.1952L34.0247 39.4791L29.1419 24.4632L41.9206 15.1793H26.1208L21.2461 0.163376L16.3633 15.1793H0.571655L13.3503 24.4632L8.46747 39.4791L21.2461 30.1952ZM19.4171 19.3844L21.2461 13.7585L23.0751 19.3844H28.9868L24.2019 22.8628L26.031 28.4887L21.2461 25.0103L16.4613 28.4887L18.2903 22.8628L13.5054 19.3844H19.4171Z" fill="url(#paint0_linear)"/>
<path d="M37.1523 16.7306H25.0024L21.2464 5.16855L17.4903 16.7306H5.34042L15.1714 23.8752L11.4154 35.429L21.2464 28.2844L31.0773 35.429L27.3213 23.8752L37.1523 16.7306ZM28.9789 32.5385L21.2464 26.9208L13.5139 32.5385L16.4697 23.4506L8.73717 17.8329H18.2905L21.2464 8.74493L24.2022 17.8329H33.7555L26.023 23.4506L28.9789 32.5385Z" fill="url(#paint1_linear)"/>
<path d="M33.7554 17.8329H24.202L21.2462 8.74496L18.2904 17.8329H8.737L16.4695 23.4506L13.5137 32.5385L21.2462 26.9208L28.9787 32.5385L26.0229 23.4506L33.7554 17.8329ZM26.031 28.4886L21.2462 25.0102L16.4613 28.4886L18.2904 22.8627L13.5055 19.3843H19.4172L21.2462 13.7584L23.0752 19.3843H28.9869L24.202 22.8627L26.031 28.4886Z" fill="url(#paint2_linear)"/>
<path d="M21.2466 0.163376L26.1212 15.1793L25.0026 16.7307L21.2466 5.16868V0.163376Z" fill="url(#paint3_linear)"/>
<path d="M21.2466 13.7584V8.74496L24.1942 17.8329L23.0756 19.3843" fill="url(#paint4_linear)"/>
<path d="M26.0711 28.6111L29.0188 32.6611L26.063 23.5731L24.2421 22.9852" fill="url(#paint5_linear)"/>
<path d="M21.2466 0.163376L26.1212 15.1793L25.0026 16.7307L21.2466 5.16868V0.163376Z" fill="url(#paint6_linear)"/>
<path d="M21.2466 13.7584V8.74496L24.1942 17.8329L23.0756 19.3843" fill="url(#paint7_linear)"/>
<path d="M21.2454 0.163376L16.3626 15.1793L17.4894 16.7307L21.2454 5.16868V0.163376Z" fill="url(#paint8_linear)"/>
<path d="M21.2457 13.7584V8.74496L18.2898 17.8329L19.4166 19.3843" fill="url(#paint9_linear)"/>
<path d="M0.571655 15.1793H16.3633L17.4901 16.7307H5.33201L0.571655 15.1793Z" fill="url(#paint10_linear)"/>
<path d="M13.4973 19.3844L8.737 17.833H18.2904L19.4172 19.3844" fill="url(#paint11_linear)"/>
<path d="M0.571655 15.1793L13.3503 24.4632L15.1712 23.8753L5.33201 16.7307L0.571655 15.1793Z" fill="url(#paint12_linear)"/>
<path d="M13.4973 19.3844L8.737 17.833L16.4695 23.4507L18.2904 22.8628" fill="url(#paint13_linear)"/>
<path d="M8.4678 39.4873L13.3506 24.4632L15.1715 23.8753L11.4155 35.4292L8.4678 39.4873Z" fill="url(#paint14_linear)"/>
<path d="M16.4618 28.4887L13.5141 32.5386L16.4699 23.4507L18.2908 22.8546" fill="url(#paint15_linear)"/>
<path d="M8.4678 39.4791L21.2464 30.2034V28.2846L11.4155 35.4292L8.4678 39.4791Z" fill="url(#paint16_linear)"/>
<path d="M16.4618 28.4887L13.5141 32.5386L21.2466 26.9209V25.0103" fill="url(#paint17_linear)"/>
<path d="M34.0252 39.4791L21.2466 30.2034V28.2846L31.0775 35.4292L34.0252 39.4791Z" fill="url(#paint18_linear)"/>
<path d="M26.0314 28.4887L28.9791 32.5386L21.2466 26.9209V25.0103" fill="url(#paint19_linear)"/>
<path d="M34.0165 39.4791L29.1418 24.4632L27.321 23.8753L31.077 35.4292L34.0165 39.4791Z" fill="url(#paint20_linear)"/>
<path d="M26.0309 28.4887L28.9704 32.5386L26.0227 23.4507L24.2019 22.8546" fill="url(#paint21_linear)"/>
<path d="M41.9205 15.1793L29.1418 24.4632L27.321 23.8753L37.1519 16.7307L41.9205 15.1793Z" fill="url(#paint22_linear)"/>
<path d="M28.9867 19.3844L33.7552 17.833L26.0227 23.4507L24.2019 22.8628" fill="url(#paint23_linear)"/>
<path d="M41.9209 15.1793H26.1211L25.0025 16.7307H37.1524L41.9209 15.1793Z" fill="url(#paint24_linear)"/>
<path d="M28.9869 19.3844L33.7554 17.833H24.1939L23.0753 19.3844" fill="url(#paint25_linear)"/>
<defs>
<linearGradient id="paint0_linear" x1="0.318271" y1="18.8046" x2="41.4611" y2="21.6816" gradientUnits="userSpaceOnUse">
<stop stop-color="#BCBDBE"/>
<stop offset="0.0015342" stop-color="#BEBEC0"/>
<stop offset="0.0334183" stop-color="#D7D7D7"/>
<stop offset="0.0651429" stop-color="#EBEAEA"/>
<stop offset="0.0963685" stop-color="#F8F8F8"/>
<stop offset="0.1265" stop-color="white"/>
<stop offset="0.2289" stop-color="#BCBDBE"/>
<stop offset="0.3012" stop-color="#A8A8AA"/>
<stop offset="0.4036" stop-color="white"/>
<stop offset="0.4578" stop-color="#DCDCDD"/>
<stop offset="0.6205" stop-color="#6D6E70"/>
<stop offset="0.6446" stop-color="#5A5B5C"/>
<stop offset="0.7229" stop-color="#DCDCDD"/>
<stop offset="0.7771" stop-color="#9E9FA2"/>
<stop offset="0.8494" stop-color="#7F8183"/>
<stop offset="1" stop-color="#DCDCDD"/>
</linearGradient>
<linearGradient id="paint1_linear" x1="5.33655" y1="20.2997" x2="37.1515" y2="20.2997" gradientUnits="userSpaceOnUse">
<stop stop-color="#D0D2D3"/>
<stop offset="0.0115512" stop-color="#D7D8D9"/>
<stop offset="0.0506416" stop-color="#EBEBEB"/>
<stop offset="0.0892424" stop-color="#F8F8F8"/>
<stop offset="0.1265" stop-color="white"/>
<stop offset="0.2289" stop-color="#D0D2D3"/>
<stop offset="0.3012" stop-color="#BBBDBF"/>
<stop offset="0.4036" stop-color="white"/>
<stop offset="0.4578" stop-color="#F2F2F2"/>
<stop offset="0.6205" stop-color="#808184"/>
<stop offset="0.6446" stop-color="#6E6F71"/>
<stop offset="0.7229" stop-color="#F2F2F2"/>
<stop offset="0.7771" stop-color="#B3B5B7"/>
<stop offset="0.8494" stop-color="#929497"/>
<stop offset="1" stop-color="#F2F2F2"/>
</linearGradient>
<linearGradient id="paint2_linear" x1="11.261" y1="28.6375" x2="32.8076" y2="16.1976" gradientUnits="userSpaceOnUse">
<stop stop-color="#828385"/>
<stop offset="0.00139738" stop-color="#838485"/>
<stop offset="0.0650163" stop-color="#8F9093"/>
<stop offset="0.1265" stop-color="#939598"/>
<stop offset="0.2651" stop-color="#6F7071"/>
<stop offset="0.4578" stop-color="#A2A2A3"/>
<stop offset="0.6446" stop-color="#414143"/>
<stop offset="0.7229" stop-color="#A2A2A3"/>
<stop offset="0.8494" stop-color="#474849"/>
<stop offset="1" stop-color="#A2A2A3"/>
</linearGradient>
<linearGradient id="paint3_linear" x1="15.2812" y1="14.5675" x2="36.1794" y2="-1.75119" gradientUnits="userSpaceOnUse">
<stop stop-color="#BCBDBE"/>
<stop offset="0.0015342" stop-color="#BEBEC0"/>
<stop offset="0.0334183" stop-color="#D7D7D7"/>
<stop offset="0.0651429" stop-color="#EBEAEA"/>
<stop offset="0.0963685" stop-color="#F8F8F8"/>
<stop offset="0.1265" stop-color="white"/>
<stop offset="0.2289" stop-color="#BCBDBE"/>
<stop offset="0.3012" stop-color="#A8A8AA"/>
<stop offset="0.4036" stop-color="white"/>
<stop offset="0.4578" stop-color="#DCDCDD"/>
<stop offset="0.6205" stop-color="#6D6E70"/>
<stop offset="0.6446" stop-color="#5A5B5C"/>
<stop offset="0.7229" stop-color="#DCDCDD"/>
<stop offset="0.7771" stop-color="#9E9FA2"/>
<stop offset="0.8494" stop-color="#7F8183"/>
<stop offset="1" stop-color="#DCDCDD"/>
</linearGradient>
<linearGradient id="paint4_linear" x1="19.3551" y1="9.2086" x2="32.5128" y2="31.998" gradientUnits="userSpaceOnUse">
<stop stop-color="#828385"/>
<stop offset="0.00139738" stop-color="#838485"/>
<stop offset="0.0650163" stop-color="#8F9093"/>
<stop offset="0.1265" stop-color="#939598"/>
<stop offset="0.2651" stop-color="#6F7071"/>
<stop offset="0.4578" stop-color="#A2A2A3"/>
<stop offset="0.6446" stop-color="#414143"/>
<stop offset="0.7229" stop-color="#A2A2A3"/>
<stop offset="0.8494" stop-color="#474849"/>
<stop offset="1" stop-color="#A2A2A3"/>
</linearGradient>
<linearGradient id="paint5_linear" x1="27.217" y1="33.4002" x2="24.4659" y2="7.2286" gradientUnits="userSpaceOnUse">
<stop stop-color="#828385"/>
<stop offset="0.00139738" stop-color="#838485"/>
<stop offset="0.0650163" stop-color="#8F9093"/>
<stop offset="0.1265" stop-color="#939598"/>
<stop offset="0.2651" stop-color="#6F7071"/>
<stop offset="0.4578" stop-color="#A2A2A3"/>
<stop offset="0.6446" stop-color="#414143"/>
<stop offset="0.7229" stop-color="#A2A2A3"/>
<stop offset="0.8494" stop-color="#474849"/>
<stop offset="1" stop-color="#A2A2A3"/>
</linearGradient>
<linearGradient id="paint6_linear" x1="15.2812" y1="14.5675" x2="36.1794" y2="-1.75119" gradientUnits="userSpaceOnUse">
<stop stop-color="#BCBDBE"/>
<stop offset="0.0015342" stop-color="#BEBEC0"/>
<stop offset="0.0334183" stop-color="#D7D7D7"/>
<stop offset="0.0651429" stop-color="#EBEAEA"/>
<stop offset="0.0963685" stop-color="#F8F8F8"/>
<stop offset="0.1265" stop-color="white"/>
<stop offset="0.2289" stop-color="#BCBDBE"/>
<stop offset="0.3012" stop-color="#A8A8AA"/>
<stop offset="0.4036" stop-color="white"/>
<stop offset="0.4578" stop-color="#DCDCDD"/>
<stop offset="0.6205" stop-color="#6D6E70"/>
<stop offset="0.6446" stop-color="#5A5B5C"/>
<stop offset="0.7229" stop-color="#DCDCDD"/>
<stop offset="0.7771" stop-color="#9E9FA2"/>
<stop offset="0.8494" stop-color="#7F8183"/>
<stop offset="1" stop-color="#DCDCDD"/>
</linearGradient>
<linearGradient id="paint7_linear" x1="19.3551" y1="9.2086" x2="32.5128" y2="31.998" gradientUnits="userSpaceOnUse">
<stop stop-color="#828385"/>
<stop offset="0.00139738" stop-color="#838485"/>
<stop offset="0.0650163" stop-color="#8F9093"/>
<stop offset="0.1265" stop-color="#939598"/>
<stop offset="0.2651" stop-color="#6F7071"/>
<stop offset="0.4578" stop-color="#A2A2A3"/>
<stop offset="0.6446" stop-color="#414143"/>
<stop offset="0.7229" stop-color="#A2A2A3"/>
<stop offset="0.8494" stop-color="#474849"/>
<stop offset="1" stop-color="#A2A2A3"/>
</linearGradient>
<linearGradient id="paint8_linear" x1="15.5459" y1="7.78577" x2="24.9695" y2="9.41203" gradientUnits="userSpaceOnUse">
<stop stop-color="#BCBDBE"/>
<stop offset="0.0015342" stop-color="#BEBEC0"/>
<stop offset="0.0334183" stop-color="#D7D7D7"/>
<stop offset="0.0651429" stop-color="#EBEAEA"/>
<stop offset="0.0963685" stop-color="#F8F8F8"/>
<stop offset="0.1265" stop-color="white"/>
<stop offset="0.2289" stop-color="#BCBDBE"/>
<stop offset="0.3012" stop-color="#A8A8AA"/>
<stop offset="0.4036" stop-color="white"/>
<stop offset="0.4578" stop-color="#DCDCDD"/>
<stop offset="0.6205" stop-color="#6D6E70"/>
<stop offset="0.6446" stop-color="#5A5B5C"/>
<stop offset="0.7229" stop-color="#DCDCDD"/>
<stop offset="0.7771" stop-color="#9E9FA2"/>
<stop offset="0.8494" stop-color="#7F8183"/>
<stop offset="1" stop-color="#DCDCDD"/>
</linearGradient>
<linearGradient id="paint9_linear" x1="26.5199" y1="32.4369" x2="18.5248" y2="9.76628" gradientUnits="userSpaceOnUse">
<stop stop-color="#828385"/>
<stop offset="0.00139738" stop-color="#838485"/>
<stop offset="0.0650163" stop-color="#8F9093"/>
<stop offset="0.1265" stop-color="#939598"/>
<stop offset="0.2651" stop-color="#6F7071"/>
<stop offset="0.4578" stop-color="#A2A2A3"/>
<stop offset="0.6446" stop-color="#414143"/>
<stop offset="0.7229" stop-color="#A2A2A3"/>
<stop offset="0.8494" stop-color="#474849"/>
<stop offset="1" stop-color="#A2A2A3"/>
</linearGradient>
<linearGradient id="paint10_linear" x1="0.692321" y1="16.7234" x2="42.124" y2="12.9061" gradientUnits="userSpaceOnUse">
<stop stop-color="#BCBDBE"/>
<stop offset="0.0015342" stop-color="#BEBEC0"/>
<stop offset="0.0334183" stop-color="#D7D7D7"/>
<stop offset="0.0651429" stop-color="#EBEAEA"/>
<stop offset="0.0963685" stop-color="#F8F8F8"/>
<stop offset="0.1265" stop-color="white"/>
<stop offset="0.2289" stop-color="#BCBDBE"/>
<stop offset="0.3012" stop-color="#A8A8AA"/>
<stop offset="0.4036" stop-color="white"/>
<stop offset="0.4578" stop-color="#DCDCDD"/>
<stop offset="0.6205" stop-color="#6D6E70"/>
<stop offset="0.6446" stop-color="#5A5B5C"/>
<stop offset="0.7229" stop-color="#DCDCDD"/>
<stop offset="0.7771" stop-color="#9E9FA2"/>
<stop offset="0.8494" stop-color="#7F8183"/>
<stop offset="1" stop-color="#DCDCDD"/>
</linearGradient>
<linearGradient id="paint11_linear" x1="12.7704" y1="31.5402" x2="15.0445" y2="9.01622" gradientUnits="userSpaceOnUse">
<stop stop-color="#828385"/>
<stop offset="0.00139738" stop-color="#838485"/>
<stop offset="0.0650163" stop-color="#8F9093"/>
<stop offset="0.1265" stop-color="#939598"/>
<stop offset="0.2651" stop-color="#6F7071"/>
<stop offset="0.4578" stop-color="#A2A2A3"/>
<stop offset="0.6446" stop-color="#414143"/>
<stop offset="0.7229" stop-color="#A2A2A3"/>
<stop offset="0.8494" stop-color="#474849"/>
<stop offset="1" stop-color="#A2A2A3"/>
</linearGradient>
<linearGradient id="paint12_linear" x1="0.0317822" y1="19.3315" x2="39.1342" y2="22.0982" gradientUnits="userSpaceOnUse">
<stop stop-color="#BCBDBE"/>
<stop offset="0.0015342" stop-color="#BEBEC0"/>
<stop offset="0.0334183" stop-color="#D7D7D7"/>
<stop offset="0.0651429" stop-color="#EBEAEA"/>
<stop offset="0.0963685" stop-color="#F8F8F8"/>
<stop offset="0.1265" stop-color="white"/>
<stop offset="0.2289" stop-color="#BCBDBE"/>
<stop offset="0.3012" stop-color="#A8A8AA"/>
<stop offset="0.4036" stop-color="white"/>
<stop offset="0.4578" stop-color="#DCDCDD"/>
<stop offset="0.6205" stop-color="#6D6E70"/>
<stop offset="0.6446" stop-color="#5A5B5C"/>
<stop offset="0.7229" stop-color="#DCDCDD"/>
<stop offset="0.7771" stop-color="#9E9FA2"/>
<stop offset="0.8494" stop-color="#7F8183"/>
<stop offset="1" stop-color="#DCDCDD"/>
</linearGradient>
<linearGradient id="paint13_linear" x1="9.14703" y1="17.1594" x2="29.3875" y2="31.9384" gradientUnits="userSpaceOnUse">
<stop stop-color="#828385"/>
<stop offset="0.00139738" stop-color="#838485"/>
<stop offset="0.0650163" stop-color="#8F9093"/>
<stop offset="0.1265" stop-color="#939598"/>
<stop offset="0.2651" stop-color="#6F7071"/>
<stop offset="0.4578" stop-color="#A2A2A3"/>
<stop offset="0.6446" stop-color="#414143"/>
<stop offset="0.7229" stop-color="#A2A2A3"/>
<stop offset="0.8494" stop-color="#474849"/>
<stop offset="1" stop-color="#A2A2A3"/>
</linearGradient>
<linearGradient id="paint14_linear" x1="8.00604" y1="31.7183" x2="21.2538" y2="31.5775" gradientUnits="userSpaceOnUse">
<stop stop-color="#BCBDBE"/>
<stop offset="0.0015342" stop-color="#BEBEC0"/>
<stop offset="0.0334183" stop-color="#D7D7D7"/>
<stop offset="0.0651429" stop-color="#EBEAEA"/>
<stop offset="0.0963685" stop-color="#F8F8F8"/>
<stop offset="0.1265" stop-color="white"/>
<stop offset="0.2289" stop-color="#BCBDBE"/>
<stop offset="0.3012" stop-color="#A8A8AA"/>
<stop offset="0.4036" stop-color="white"/>
<stop offset="0.4578" stop-color="#DCDCDD"/>
<stop offset="0.6205" stop-color="#6D6E70"/>
<stop offset="0.6446" stop-color="#5A5B5C"/>
<stop offset="0.7229" stop-color="#DCDCDD"/>
<stop offset="0.7771" stop-color="#9E9FA2"/>
<stop offset="0.8494" stop-color="#7F8183"/>
<stop offset="1" stop-color="#DCDCDD"/>
</linearGradient>
<linearGradient id="paint15_linear" x1="31.3553" y1="16.1104" x2="11.8312" y2="30.2884" gradientUnits="userSpaceOnUse">
<stop stop-color="#828385"/>
<stop offset="0.00139738" stop-color="#838485"/>
<stop offset="0.0650163" stop-color="#8F9093"/>
<stop offset="0.1265" stop-color="#939598"/>
<stop offset="0.2651" stop-color="#6F7071"/>
<stop offset="0.4578" stop-color="#A2A2A3"/>
<stop offset="0.6446" stop-color="#414143"/>
<stop offset="0.7229" stop-color="#A2A2A3"/>
<stop offset="0.8494" stop-color="#474849"/>
<stop offset="1" stop-color="#A2A2A3"/>
</linearGradient>
<linearGradient id="paint16_linear" x1="7.67529" y1="39.067" x2="41.7811" y2="14.4522" gradientUnits="userSpaceOnUse">
<stop stop-color="#BCBDBE"/>
<stop offset="0.0015342" stop-color="#BEBEC0"/>
<stop offset="0.0334183" stop-color="#D7D7D7"/>
<stop offset="0.0651429" stop-color="#EBEAEA"/>
<stop offset="0.0963685" stop-color="#F8F8F8"/>
<stop offset="0.1265" stop-color="white"/>
<stop offset="0.2289" stop-color="#BCBDBE"/>
<stop offset="0.3012" stop-color="#A8A8AA"/>
<stop offset="0.4036" stop-color="white"/>
<stop offset="0.4578" stop-color="#DCDCDD"/>
<stop offset="0.6205" stop-color="#6D6E70"/>
<stop offset="0.6446" stop-color="#5A5B5C"/>
<stop offset="0.7229" stop-color="#DCDCDD"/>
<stop offset="0.7771" stop-color="#9E9FA2"/>
<stop offset="0.8494" stop-color="#7F8183"/>
<stop offset="1" stop-color="#DCDCDD"/>
</linearGradient>
<linearGradient id="paint17_linear" x1="12.8203" y1="32.4834" x2="31.5177" y2="17.664" gradientUnits="userSpaceOnUse">
<stop stop-color="#828385"/>
<stop offset="0.00139738" stop-color="#838485"/>
<stop offset="0.0650163" stop-color="#8F9093"/>
<stop offset="0.1265" stop-color="#939598"/>
<stop offset="0.2651" stop-color="#6F7071"/>
<stop offset="0.4578" stop-color="#A2A2A3"/>
<stop offset="0.6446" stop-color="#414143"/>
<stop offset="0.7229" stop-color="#A2A2A3"/>
<stop offset="0.8494" stop-color="#474849"/>
<stop offset="1" stop-color="#A2A2A3"/>
</linearGradient>
<linearGradient id="paint18_linear" x1="-0.93334" y1="31.8538" x2="38.1619" y2="34.6332" gradientUnits="userSpaceOnUse">
<stop stop-color="#BCBDBE"/>
<stop offset="0.0015342" stop-color="#BEBEC0"/>
<stop offset="0.0334183" stop-color="#D7D7D7"/>
<stop offset="0.0651429" stop-color="#EBEAEA"/>
<stop offset="0.0963685" stop-color="#F8F8F8"/>
<stop offset="0.1265" stop-color="white"/>
<stop offset="0.2289" stop-color="#BCBDBE"/>
<stop offset="0.3012" stop-color="#A8A8AA"/>
<stop offset="0.4036" stop-color="white"/>
<stop offset="0.4578" stop-color="#DCDCDD"/>
<stop offset="0.6205" stop-color="#6D6E70"/>
<stop offset="0.6446" stop-color="#5A5B5C"/>
<stop offset="0.7229" stop-color="#DCDCDD"/>
<stop offset="0.7771" stop-color="#9E9FA2"/>
<stop offset="0.8494" stop-color="#7F8183"/>
<stop offset="1" stop-color="#DCDCDD"/>
</linearGradient>
<linearGradient id="paint19_linear" x1="34.5604" y1="28.4942" x2="9.05738" y2="29.2453" gradientUnits="userSpaceOnUse">
<stop stop-color="#828385"/>
<stop offset="0.00139738" stop-color="#838485"/>
<stop offset="0.0650163" stop-color="#8F9093"/>
<stop offset="0.1265" stop-color="#939598"/>
<stop offset="0.2651" stop-color="#6F7071"/>
<stop offset="0.4578" stop-color="#A2A2A3"/>
<stop offset="0.6446" stop-color="#414143"/>
<stop offset="0.7229" stop-color="#A2A2A3"/>
<stop offset="0.8494" stop-color="#474849"/>
<stop offset="1" stop-color="#A2A2A3"/>
</linearGradient>
<linearGradient id="paint20_linear" x1="25.3943" y1="34.5252" x2="37.1484" y2="28.1811" gradientUnits="userSpaceOnUse">
<stop stop-color="#BCBDBE"/>
<stop offset="0.0015342" stop-color="#BEBEC0"/>
<stop offset="0.0334183" stop-color="#D7D7D7"/>
<stop offset="0.0651429" stop-color="#EBEAEA"/>
<stop offset="0.0963685" stop-color="#F8F8F8"/>
<stop offset="0.1265" stop-color="white"/>
<stop offset="0.2289" stop-color="#BCBDBE"/>
<stop offset="0.3012" stop-color="#A8A8AA"/>
<stop offset="0.4036" stop-color="white"/>
<stop offset="0.4578" stop-color="#DCDCDD"/>
<stop offset="0.6205" stop-color="#6D6E70"/>
<stop offset="0.6446" stop-color="#5A5B5C"/>
<stop offset="0.7229" stop-color="#DCDCDD"/>
<stop offset="0.7771" stop-color="#9E9FA2"/>
<stop offset="0.8494" stop-color="#7F8183"/>
<stop offset="1" stop-color="#DCDCDD"/>
</linearGradient>
<linearGradient id="paint21_linear" x1="27.1741" y1="33.2739" x2="24.423" y2="7.10307" gradientUnits="userSpaceOnUse">
<stop stop-color="#828385"/>
<stop offset="0.00139738" stop-color="#838485"/>
<stop offset="0.0650163" stop-color="#8F9093"/>
<stop offset="0.1265" stop-color="#939598"/>
<stop offset="0.2651" stop-color="#6F7071"/>
<stop offset="0.4578" stop-color="#A2A2A3"/>
<stop offset="0.6446" stop-color="#414143"/>
<stop offset="0.7229" stop-color="#A2A2A3"/>
<stop offset="0.8494" stop-color="#474849"/>
<stop offset="1" stop-color="#A2A2A3"/>
</linearGradient>
<linearGradient id="paint22_linear" x1="6.85082" y1="37.4369" x2="42.0668" y2="14.8821" gradientUnits="userSpaceOnUse">
<stop stop-color="#BCBDBE"/>
<stop offset="0.0015342" stop-color="#BEBEC0"/>
<stop offset="0.0334183" stop-color="#D7D7D7"/>
<stop offset="0.0651429" stop-color="#EBEAEA"/>
<stop offset="0.0963685" stop-color="#F8F8F8"/>
<stop offset="0.1265" stop-color="white"/>
<stop offset="0.2289" stop-color="#BCBDBE"/>
<stop offset="0.3012" stop-color="#A8A8AA"/>
<stop offset="0.4036" stop-color="white"/>
<stop offset="0.4578" stop-color="#DCDCDD"/>
<stop offset="0.6205" stop-color="#6D6E70"/>
<stop offset="0.6446" stop-color="#5A5B5C"/>
<stop offset="0.7229" stop-color="#DCDCDD"/>
<stop offset="0.7771" stop-color="#9E9FA2"/>
<stop offset="0.8494" stop-color="#7F8183"/>
<stop offset="1" stop-color="#DCDCDD"/>
</linearGradient>
<linearGradient id="paint23_linear" x1="13.3485" y1="32.2071" x2="32.9827" y2="17.3057" gradientUnits="userSpaceOnUse">
<stop stop-color="#828385"/>
<stop offset="0.00139738" stop-color="#838485"/>
<stop offset="0.0650163" stop-color="#8F9093"/>
<stop offset="0.1265" stop-color="#939598"/>
<stop offset="0.2651" stop-color="#6F7071"/>
<stop offset="0.4578" stop-color="#A2A2A3"/>
<stop offset="0.6446" stop-color="#414143"/>
<stop offset="0.7229" stop-color="#A2A2A3"/>
<stop offset="0.8494" stop-color="#474849"/>
<stop offset="1" stop-color="#A2A2A3"/>
</linearGradient>
<linearGradient id="paint24_linear" x1="0.841394" y1="18.8438" x2="42.3965" y2="14.9462" gradientUnits="userSpaceOnUse">
<stop stop-color="#BCBDBE"/>
<stop offset="0.0015342" stop-color="#BEBEC0"/>
<stop offset="0.0334183" stop-color="#D7D7D7"/>
<stop offset="0.0651429" stop-color="#EBEAEA"/>
<stop offset="0.0963685" stop-color="#F8F8F8"/>
<stop offset="0.1265" stop-color="white"/>
<stop offset="0.2289" stop-color="#BCBDBE"/>
<stop offset="0.3012" stop-color="#A8A8AA"/>
<stop offset="0.4036" stop-color="white"/>
<stop offset="0.4578" stop-color="#DCDCDD"/>
<stop offset="0.6205" stop-color="#6D6E70"/>
<stop offset="0.6446" stop-color="#5A5B5C"/>
<stop offset="0.7229" stop-color="#DCDCDD"/>
<stop offset="0.7771" stop-color="#9E9FA2"/>
<stop offset="0.8494" stop-color="#7F8183"/>
<stop offset="1" stop-color="#DCDCDD"/>
</linearGradient>
<linearGradient id="paint25_linear" x1="29.6425" y1="31.5737" x2="27.4866" y2="8.85141" gradientUnits="userSpaceOnUse">
<stop stop-color="#828385"/>
<stop offset="0.00139738" stop-color="#838485"/>
<stop offset="0.0650163" stop-color="#8F9093"/>
<stop offset="0.1265" stop-color="#939598"/>
<stop offset="0.2651" stop-color="#6F7071"/>
<stop offset="0.4578" stop-color="#A2A2A3"/>
<stop offset="0.6446" stop-color="#414143"/>
<stop offset="0.7229" stop-color="#A2A2A3"/>
<stop offset="0.8494" stop-color="#474849"/>
<stop offset="1" stop-color="#A2A2A3"/>
</linearGradient>
</defs>
</svg>
